<?xml version="1.0" encoding="iso-8859-1" standalone="no"?> 
<?xml-stylesheet href="cmsc351.css" type="text/css"?> 
<svg xmlns="http://www.w3.org/2000/svg" xmlns:xlink="http://www.w3.org/1999/xlink" width="268.17432pt" height="172.3856pt" viewBox="-107.74437 -136.19711 268.17432 172.3856 "> 
<g transform="translate(0, 36.18849 ) scale(1,-1) translate(0,136.19711 )"> 
                                <g stroke="#000" fill="#000">
 <g stroke-width="0.4">
 <g fill="#fff">
 <g stroke="#000">
 <g fill="#fff">
 <g stroke="#000">
 <path d=" M 7.95978 0.0 C 7.95978 4.39612 4.39612 7.95978 0.0 7.95978 C -4.39612 7.95978 -7.95978 4.39612 -7.95978 0.0 C -7.95978 -4.39612 -4.39612 -7.95978 0.0 -7.95978 C 4.39612 -7.95978 7.95978 -4.39612 7.95978 0.0 Z M 0.0 0.0  " />
 </g>
 </g>
 <g transform="matrix(0.75,0.0,0.0,0.75,-3.75,-2.41666)">
 <g fill="#000">
 <text style="stroke:none" transform="scale(1,-1) translate(5.00002,0)" text-anchor="middle"  font-size="10"> 
<g fill="#000">
 <g stroke="none"> 60</g> </g>
 </text> 
</g>
 </g>
 </g>
 </g>
 <g fill="#fff">
 <g stroke="#000">
 <g fill="#fff">
 <g stroke="#000">
 <path d=" M -48.94571 -42.67911 C -48.94571 -38.28299 -52.50937 -34.71933 -56.90549 -34.71933 C -61.3016 -34.71933 -64.86526 -38.28299 -64.86526 -42.67911 C -64.86526 -47.07523 -61.3016 -50.63889 -56.90549 -50.63889 C -52.50937 -50.63889 -48.94571 -47.07523 -48.94571 -42.67911 Z M -56.90549 -42.67911  " />
 </g>
 </g>
 <g transform="matrix(0.75,0.0,0.0,0.75,-60.65549,-45.09576)">
 <g fill="#000">
 <text style="stroke:none" transform="scale(1,-1) translate(5.00002,0)" text-anchor="middle"  font-size="10"> 
<g fill="#000">
 <g stroke="none"> 30</g> </g>
 </text> 
</g>
 </g>
 </g>
 </g>
 <g fill="#fff">
 <g stroke="#000">
 <g fill="#fff">
 <g stroke="#000">
 <path d=" M 64.86526 -42.67911 C 64.86526 -38.28299 61.3016 -34.71933 56.90549 -34.71933 C 52.50937 -34.71933 48.94571 -38.28299 48.94571 -42.67911 C 48.94571 -47.07523 52.50937 -50.63889 56.90549 -50.63889 C 61.3016 -50.63889 64.86526 -47.07523 64.86526 -42.67911 Z M 56.90549 -42.67911  " />
 </g>
 </g>
 <g transform="matrix(0.75,0.0,0.0,0.75,53.15549,-45.09576)">
 <g fill="#000">
 <text style="stroke:none" transform="scale(1,-1) translate(5.00002,0)" text-anchor="middle"  font-size="10"> 
<g fill="#000">
 <g stroke="none"> 95</g> </g>
 </text> 
</g>
 </g>
 </g>
 </g>
 <g fill="#fff">
 <g stroke="#000">
 <g fill="#fff">
 <g stroke="#000">
 <path d=" M -77.39845 -85.35823 C -77.39845 -80.96211 -80.96211 -77.39845 -85.35823 -77.39845 C -89.75435 -77.39845 -93.31801 -80.96211 -93.31801 -85.35823 C -93.31801 -89.75435 -89.75435 -93.31801 -85.35823 -93.31801 C -80.96211 -93.31801 -77.39845 -89.75435 -77.39845 -85.35823 Z M -85.35823 -85.35823  " />
 </g>
 </g>
 <g transform="matrix(0.75,0.0,0.0,0.75,-89.10823,-87.77489)">
 <g fill="#000">
 <text style="stroke:none" transform="scale(1,-1) translate(5.00002,0)" text-anchor="middle"  font-size="10"> 
<g fill="#000">
 <g stroke="none"> 50</g> </g>
 </text> 
</g>
 </g>
 </g>
 </g>
 <g fill="#fff">
 <g stroke="#000">
 <g fill="#fff">
 <g stroke="#000">
 <path d=" M -20.49297 -85.35823 C -20.49297 -80.96211 -24.05663 -77.39845 -28.45274 -77.39845 C -32.84886 -77.39845 -36.41252 -80.96211 -36.41252 -85.35823 C -36.41252 -89.75435 -32.84886 -93.31801 -28.45274 -93.31801 C -24.05663 -93.31801 -20.49297 -89.75435 -20.49297 -85.35823 Z M -28.45274 -85.35823  " />
 </g>
 </g>
 <g transform="matrix(0.75,0.0,0.0,0.75,-32.20274,-87.77489)">
 <g fill="#000">
 <text style="stroke:none" transform="scale(1,-1) translate(5.00002,0)" text-anchor="middle"  font-size="10"> 
<g fill="#000">
 <g stroke="none"> 10</g> </g>
 </text> 
</g>
 </g>
 </g>
 </g>
 <g fill="#fff">
 <g stroke="#000">
 <g fill="#fff">
 <g stroke="#000">
 <path d=" M 36.41252 -85.35823 C 36.41252 -80.96211 32.84886 -77.39845 28.45274 -77.39845 C 24.05663 -77.39845 20.49297 -80.96211 20.49297 -85.35823 C 20.49297 -89.75435 24.05663 -93.31801 28.45274 -93.31801 C 32.84886 -93.31801 36.41252 -89.75435 36.41252 -85.35823 Z M 28.45274 -85.35823  " />
 </g>
 </g>
 <g transform="matrix(0.75,0.0,0.0,0.75,24.70274,-87.77489)">
 <g fill="#000">
 <text style="stroke:none" transform="scale(1,-1) translate(5.00002,0)" text-anchor="middle"  font-size="10"> 
<g fill="#000">
 <g stroke="none"> 70</g> </g>
 </text> 
</g>
 </g>
 </g>
 </g>
 <g fill="#fff">
 <g stroke="#000">
 <g fill="#fff">
 <g stroke="#000">
 <path d=" M 93.31801 -85.35823 C 93.31801 -80.96211 89.75435 -77.39845 85.35823 -77.39845 C 80.96211 -77.39845 77.39845 -80.96211 77.39845 -85.35823 C 77.39845 -89.75435 80.96211 -93.31801 85.35823 -93.31801 C 89.75435 -93.31801 93.31801 -89.75435 93.31801 -85.35823 Z M 85.35823 -85.35823  " />
 </g>
 </g>
 <g transform="matrix(0.75,0.0,0.0,0.75,81.60823,-87.77489)">
 <g fill="#000">
 <text style="stroke:none" transform="scale(1,-1) translate(5.00002,0)" text-anchor="middle"  font-size="10"> 
<g fill="#000">
 <g stroke="none"> 90</g> </g>
 </text> 
</g>
 </g>
 </g>
 </g>
 <g fill="#fff">
 <g stroke="#000">
 <g fill="#fff">
 <g stroke="#000">
 <path d=" M -91.62482 -128.03734 C -91.62482 -123.64122 -95.18848 -120.07756 -99.5846 -120.07756 C -103.98071 -120.07756 -107.54437 -123.64122 -107.54437 -128.03734 C -107.54437 -132.43346 -103.98071 -135.99712 -99.5846 -135.99712 C -95.18848 -135.99712 -91.62482 -132.43346 -91.62482 -128.03734 Z M -99.5846 -128.03734  " />
 </g>
 </g>
 <g transform="matrix(0.75,0.0,0.0,0.75,-103.3346,-130.454)">
 <g fill="#000">
 <text style="stroke:none" transform="scale(1,-1) translate(5.00002,0)" text-anchor="middle"  font-size="10"> 
<g fill="#000">
 <g stroke="none"> 20</g> </g>
 </text> 
</g>
 </g>
 </g>
 </g>
 <g fill="#fff">
 <g stroke="#000">
 <g fill="#fff">
 <g stroke="#000">
 <path d=" M -63.17207 -128.03734 C -63.17207 -123.64122 -66.73573 -120.07756 -71.13185 -120.07756 C -75.52797 -120.07756 -79.09163 -123.64122 -79.09163 -128.03734 C -79.09163 -132.43346 -75.52797 -135.99712 -71.13185 -135.99712 C -66.73573 -135.99712 -63.17207 -132.43346 -63.17207 -128.03734 Z M -71.13185 -128.03734  " />
 </g>
 </g>
 <g transform="matrix(0.75,0.0,0.0,0.75,-74.88185,-130.454)">
 <g fill="#000">
 <text style="stroke:none" transform="scale(1,-1) translate(5.00002,0)" text-anchor="middle"  font-size="10"> 
<g fill="#000">
 <g stroke="none"> 80</g> </g>
 </text> 
</g>
 </g>
 </g>
 </g>
 <g fill="#fff">
 <g stroke="#000">
 <g fill="#fff">
 <g stroke="#000">
 <path d=" M -20.49297 -128.03734 C -20.49297 -123.64122 -24.05663 -120.07756 -28.45274 -120.07756 C -32.84886 -120.07756 -36.41252 -123.64122 -36.41252 -128.03734 C -36.41252 -132.43346 -32.84886 -135.99712 -28.45274 -135.99712 C -24.05663 -135.99712 -20.49297 -132.43346 -20.49297 -128.03734 Z M -28.45274 -128.03734  " />
 </g>
 </g>
 <g transform="matrix(0.75,0.0,0.0,0.75,-32.20274,-130.454)">
 <g fill="#000">
 <text style="stroke:none" transform="scale(1,-1) translate(5.00002,0)" text-anchor="middle"  font-size="10"> 
<g fill="#000">
 <g stroke="none"> 40</g> </g>
 </text> 
</g>
 </g>
 </g>
 </g>
 <path d=" M -50.4179 -37.81332 L -6.48756 -4.86578  " fill="none"/>
 <path d=" M 50.41792 -37.81332 L 6.4876 -4.86578  " fill="none"/>
 <path d=" M -80.85997 -78.61078 L -61.40361 -49.42656  " fill="none"/>
 <path d=" M -32.95087 -78.61078 L -52.40723 -49.42656  " fill="none"/>
 <path d=" M 32.951 -78.61078 L 52.40736 -49.42656  " fill="none"/>
 <path d=" M 80.8601 -78.61078 L 61.40375 -49.42656  " fill="none"/>
 <path d=" M -97.02022 -120.3441 L -87.92259 -93.05147  " fill="none"/>
 <path d=" M -73.69621 -120.3441 L -82.79385 -93.05147  " fill="none"/>
 <path d=" M -28.45274 -119.92757 L -28.45274 -93.468  " fill="none"/>
 <g fill="#fff">
 <g stroke="#000">
 <g fill="#fff">
 <g stroke="#000">
 <path d=" M 149.34682 5.57196 L 135.18065 5.57196 L 135.18065 -5.57193 L 149.34682 -5.57193 Z M 135.18065 -5.57193  " />
 </g>
 </g>
 <g transform="matrix(0.85,0.0,0.0,0.85,138.01369,-2.73889)">
 <g fill="#000">
 <text style="stroke:none" transform="scale(1,-1) translate(5.00002,0)" text-anchor="middle"  font-size="10"> 
<g fill="#000">
 <g stroke="none"> 60</g> </g>
 </text> 
</g>
 </g>
 </g>
 </g>
 <g fill="#fff">
 <g stroke="#000">
 <g fill="#fff">
 <g stroke="#000">
 <path d=" M 149.34682 -8.6544 L 135.18065 -8.6544 L 135.18065 -19.7983 L 149.34682 -19.7983 Z M 135.18065 -19.7983  " />
 </g>
 </g>
 <g transform="matrix(0.85,0.0,0.0,0.85,138.01369,-16.96526)">
 <g fill="#000">
 <text style="stroke:none" transform="scale(1,-1) translate(5.00002,0)" text-anchor="middle"  font-size="10"> 
<g fill="#000">
 <g stroke="none"> 30</g> </g>
 </text> 
</g>
 </g>
 </g>
 </g>
 <g fill="#fff">
 <g stroke="#000">
 <g fill="#fff">
 <g stroke="#000">
 <path d=" M 149.34682 -22.88078 L 135.18065 -22.88078 L 135.18065 -34.02467 L 149.34682 -34.02467 Z M 135.18065 -34.02467  " />
 </g>
 </g>
 <g transform="matrix(0.85,0.0,0.0,0.85,138.01369,-31.19164)">
 <g fill="#000">
 <text style="stroke:none" transform="scale(1,-1) translate(5.00002,0)" text-anchor="middle"  font-size="10"> 
<g fill="#000">
 <g stroke="none"> 95</g> </g>
 </text> 
</g>
 </g>
 </g>
 </g>
 <g fill="#fff">
 <g stroke="#000">
 <g fill="#fff">
 <g stroke="#000">
 <path d=" M 149.34682 -37.10715 L 135.18065 -37.10715 L 135.18065 -48.25104 L 149.34682 -48.25104 Z M 135.18065 -48.25104  " />
 </g>
 </g>
 <g transform="matrix(0.85,0.0,0.0,0.85,138.01369,-45.418)">
 <g fill="#000">
 <text style="stroke:none" transform="scale(1,-1) translate(5.00002,0)" text-anchor="middle"  font-size="10"> 
<g fill="#000">
 <g stroke="none"> 50</g> </g>
 </text> 
</g>
 </g>
 </g>
 </g>
 <g fill="#fff">
 <g stroke="#000">
 <g fill="#fff">
 <g stroke="#000">
 <path d=" M 149.34682 -51.33353 L 135.18065 -51.33353 L 135.18065 -62.47742 L 149.34682 -62.47742 Z M 135.18065 -62.47742  " />
 </g>
 </g>
 <g transform="matrix(0.85,0.0,0.0,0.85,138.01369,-59.64438)">
 <g fill="#000">
 <text style="stroke:none" transform="scale(1,-1) translate(5.00002,0)" text-anchor="middle"  font-size="10"> 
<g fill="#000">
 <g stroke="none"> 10</g> </g>
 </text> 
</g>
 </g>
 </g>
 </g>
 <g fill="#fff">
 <g stroke="#000">
 <g fill="#fff">
 <g stroke="#000">
 <path d=" M 149.34682 -65.55989 L 135.18065 -65.55989 L 135.18065 -76.70378 L 149.34682 -76.70378 Z M 135.18065 -76.70378  " />
 </g>
 </g>
 <g transform="matrix(0.85,0.0,0.0,0.85,138.01369,-73.87074)">
 <g fill="#000">
 <text style="stroke:none" transform="scale(1,-1) translate(5.00002,0)" text-anchor="middle"  font-size="10"> 
<g fill="#000">
 <g stroke="none"> 70</g> </g>
 </text> 
</g>
 </g>
 </g>
 </g>
 <g fill="#fff">
 <g stroke="#000">
 <g fill="#fff">
 <g stroke="#000">
 <path d=" M 149.34682 -79.78627 L 135.18065 -79.78627 L 135.18065 -90.93016 L 149.34682 -90.93016 Z M 135.18065 -90.93016  " />
 </g>
 </g>
 <g transform="matrix(0.85,0.0,0.0,0.85,138.01369,-88.09712)">
 <g fill="#000">
 <text style="stroke:none" transform="scale(1,-1) translate(5.00002,0)" text-anchor="middle"  font-size="10"> 
<g fill="#000">
 <g stroke="none"> 90</g> </g>
 </text> 
</g>
 </g>
 </g>
 </g>
 <g fill="#fff">
 <g stroke="#000">
 <g fill="#fff">
 <g stroke="#000">
 <path d=" M 149.34682 -94.01263 L 135.18065 -94.01263 L 135.18065 -105.15652 L 149.34682 -105.15652 Z M 135.18065 -105.15652  " />
 </g>
 </g>
 <g transform="matrix(0.85,0.0,0.0,0.85,138.01369,-102.32349)">
 <g fill="#000">
 <text style="stroke:none" transform="scale(1,-1) translate(5.00002,0)" text-anchor="middle"  font-size="10"> 
<g fill="#000">
 <g stroke="none"> 20</g> </g>
 </text> 
</g>
 </g>
 </g>
 </g>
 <g fill="#fff">
 <g stroke="#000">
 <g fill="#fff">
 <g stroke="#000">
 <path d=" M 149.34682 -108.23901 L 135.18065 -108.23901 L 135.18065 -119.3829 L 149.34682 -119.3829 Z M 135.18065 -119.3829  " />
 </g>
 </g>
 <g transform="matrix(0.85,0.0,0.0,0.85,138.01369,-116.54987)">
 <g fill="#000">
 <text style="stroke:none" transform="scale(1,-1) translate(5.00002,0)" text-anchor="middle"  font-size="10"> 
<g fill="#000">
 <g stroke="none"> 80</g> </g>
 </text> 
</g>
 </g>
 </g>
 </g>
 <g fill="#fff">
 <g stroke="#000">
 <g fill="#fff">
 <g stroke="#000">
 <path d=" M 149.34682 -122.46538 L 135.18065 -122.46538 L 135.18065 -133.60927 L 149.34682 -133.60927 Z M 135.18065 -133.60927  " />
 </g>
 </g>
 <g transform="matrix(0.85,0.0,0.0,0.85,138.01369,-130.77623)">
 <g fill="#000">
 <text style="stroke:none" transform="scale(1,-1) translate(5.00002,0)" text-anchor="middle"  font-size="10"> 
<g fill="#000">
 <g stroke="none"> 40</g> </g>
 </text> 
</g>
 </g>
 </g>
 </g>
 <g transform="translate(125.53734,-3.22221)">
 <g fill="#000">
 <text style="stroke:none" transform="scale(1,-1) translate(2.5,0)" text-anchor="middle"  font-size="10"> 
<g fill="#000">
 <g stroke="none"> 1 </g> </g>
 </text> 
</g>
 </g>
 <g transform="translate(125.53734,-17.44858)">
 <g fill="#000">
 <text style="stroke:none" transform="scale(1,-1) translate(2.5,0)" text-anchor="middle"  font-size="10"> 
<g fill="#000">
 <g stroke="none"> 2 </g> </g>
 </text> 
</g>
 </g>
 <g transform="translate(125.53734,-31.67496)">
 <g fill="#000">
 <text style="stroke:none" transform="scale(1,-1) translate(2.5,0)" text-anchor="middle"  font-size="10"> 
<g fill="#000">
 <g stroke="none"> 3 </g> </g>
 </text> 
</g>
 </g>
 <g transform="translate(125.53734,-45.90132)">
 <g fill="#000">
 <text style="stroke:none" transform="scale(1,-1) translate(2.5,0)" text-anchor="middle"  font-size="10"> 
<g fill="#000">
 <g stroke="none"> 4 </g> </g>
 </text> 
</g>
 </g>
 <g transform="translate(125.53734,-60.1277)">
 <g fill="#000">
 <text style="stroke:none" transform="scale(1,-1) translate(2.5,0)" text-anchor="middle"  font-size="10"> 
<g fill="#000">
 <g stroke="none"> 5 </g> </g>
 </text> 
</g>
 </g>
 <g transform="translate(125.53734,-74.35406)">
 <g fill="#000">
 <text style="stroke:none" transform="scale(1,-1) translate(2.5,0)" text-anchor="middle"  font-size="10"> 
<g fill="#000">
 <g stroke="none"> 6 </g> </g>
 </text> 
</g>
 </g>
 <g transform="translate(125.53734,-88.58044)">
 <g fill="#000">
 <text style="stroke:none" transform="scale(1,-1) translate(2.5,0)" text-anchor="middle"  font-size="10"> 
<g fill="#000">
 <g stroke="none"> 7 </g> </g>
 </text> 
</g>
 </g>
 <g transform="translate(125.53734,-102.80681)">
 <g fill="#000">
 <text style="stroke:none" transform="scale(1,-1) translate(2.5,0)" text-anchor="middle"  font-size="10"> 
<g fill="#000">
 <g stroke="none"> 8 </g> </g>
 </text> 
</g>
 </g>
 <g transform="translate(125.53734,-117.03319)">
 <g fill="#000">
 <text style="stroke:none" transform="scale(1,-1) translate(2.5,0)" text-anchor="middle"  font-size="10"> 
<g fill="#000">
 <g stroke="none"> 9 </g> </g>
 </text> 
</g>
 </g>
 <g transform="translate(123.03732,-131.25955)">
 <g fill="#000">
 <text style="stroke:none" transform="scale(1,-1) translate(5.00002,0)" text-anchor="middle"  font-size="10"> 
<g fill="#000">
 <g stroke="none"> 10</g> </g>
 </text> 
</g>
 </g>
 <g transform="translate(-11.15967,25.02219)">
 <g fill="#000">
 <text style="stroke:none" transform="scale(1,-1) translate(11.15967,0)" text-anchor="middle"  font-size="10"> 
<g fill="#000">
 <g stroke="none"> <tspan font-family="cmbx" font-size="10">Tree</tspan></g> </g>
 </text> 
</g>
 </g>
 <g transform="translate(127.43047,25.9944)">
 <g fill="#000">
 <text style="stroke:none" transform="scale(1,-1) translate(14.83325,0)" text-anchor="middle"  font-size="10"> 
<g fill="#000">
 <g stroke="none"> <tspan font-family="cmbx" font-size="10">Array</tspan></g> </g>
 </text> 
</g>
 </g>
 </g>
 </g>
 
                                                                      </g> 
</svg> 
