<?xml version="1.0" encoding="iso-8859-1" standalone="no"?> 
<?xml-stylesheet href="cmsc351.css" type="text/css"?> 
<svg xmlns="http://www.w3.org/2000/svg" xmlns:xlink="http://www.w3.org/1999/xlink" width="291.10745pt" height="184.9935pt" viewBox="-145.83844 -148.81891 291.10745 184.9935 "> 
<g transform="translate(0, 36.17459 ) scale(1,-1) translate(0,148.81891 )"> 
                                            <g stroke="#000" fill="#000">
 <g stroke-width="0.4">
 <g transform="translate(-142.50546,24.98053)">
 <g fill="#000">
 <text style="stroke:none" transform="scale(1,-1) translate(28.69449,0)" text-anchor="middle"  font-size="10"> 
<g fill="#000">
 <g stroke="none"> Problem Size</g> </g>
 </text> 
</g>
 </g>
 <g transform="translate(-9.59721,25.03609)">
 <g fill="#000">
 <text style="stroke:none" transform="scale(1,-1) translate(9.59721,0)" text-anchor="middle"  font-size="10"> 
<g fill="#000">
 <g stroke="none"> Tree </g> </g>
 </text> 
</g>
 </g>
 <g transform="translate(85.68591,26.0083)">
 <g fill="#000">
 <text style="stroke:none" transform="scale(1,-1) translate(28.12506,0)" text-anchor="middle"  font-size="10"> 
<g fill="#000">
 <g stroke="none"> Comparisons </g> </g>
 </text> 
</g>
 </g>
 <g transform="translate(-116.81215,-2.15277)">
 <g fill="#000">
 <text style="stroke:none" transform="scale(1,-1) translate(3.00117,0)" text-anchor="middle"  font-size="10"> 
<g fill="#000">
 <g stroke="none"> <tspan font-family="cmmi" font-size="10">n</tspan> </g> </g>
 </text> 
</g>
 </g>
 <g transform="translate(-118.95544,-30.20415)">
 <g fill="#000">
 <text style="stroke:none" transform="scale(1,-1) translate(5.14447,0)" text-anchor="middle"  font-size="10"> 
<g fill="#000">
 <g stroke="none"> <img 
src="cmsc35134x.png" alt="n-
21"  class="frac" align="middle"></g> </g>
 </text> 
</g>
 </g>
 <g transform="translate(-118.95544,-58.65689)">
 <g fill="#000">
 <text style="stroke:none" transform="scale(1,-1) translate(5.14447,0)" text-anchor="middle"  font-size="10"> 
<g fill="#000">
 <g stroke="none"> <img 
src="cmsc35135x.png" alt="n-
22"  class="frac" align="middle"></g> </g>
 </text> 
</g>
 </g>
 <g transform="translate(-115.19986,-92.886)">
 <g fill="#000">
 <text style="stroke:none" transform="scale(1,-1) translate(1.38889,0)" text-anchor="middle"  font-size="10"> 
<g fill="#000">
 <g stroke="none"> <img 
src="cmsc35136x.png" alt="..
."  class="vdots" ></g> </g>
 </text> 
</g>
 </g>
 <g transform="translate(-116.31097,-117.03319)">
 <g fill="#000">
 <text style="stroke:none" transform="scale(1,-1) translate(2.5,0)" text-anchor="middle"  font-size="10"> 
<g fill="#000">
 <g stroke="none"> 2</g> </g>
 </text> 
</g>
 </g>
 <g transform="translate(-116.31097,-145.48593)">
 <g fill="#000">
 <text style="stroke:none" transform="scale(1,-1) translate(2.5,0)" text-anchor="middle"  font-size="10"> 
<g fill="#000">
 <g stroke="none"> 1</g> </g>
 </text> 
</g>
 </g>
 <g transform="translate(102.19873,-2.80556)">
 <g fill="#000">
 <text style="stroke:none" transform="scale(1,-1) translate(11.61224,0)" text-anchor="middle"  font-size="10"> 
<g fill="#000">
 <g stroke="none"> <tspan font-family="cmmi" font-size="10">n </tspan><tspan font-family="cmsy" font-size="10">- </tspan>1</g> </g>
 </text> 
</g>
 </g>
 <g transform="translate(93.61156,-30.95273)">
 <g fill="#000">
 <text style="stroke:none" transform="scale(1,-1) translate(20.19942,0)" text-anchor="middle"  font-size="10"> 
<g fill="#000">
 <g stroke="none"> 2<img 
src="cmsc35137x.png" alt="(n   )
 2 - 1"  class="left" align="middle"></g> </g>
 </text> 
</g>
 </g>
 <g transform="translate(93.61156,-59.40547)">
 <g fill="#000">
 <text style="stroke:none" transform="scale(1,-1) translate(20.19942,0)" text-anchor="middle"  font-size="10"> 
<g fill="#000">
 <g stroke="none"> 4<img 
src="cmsc35138x.png" alt="(n   )
 4 - 1"  class="left" align="middle"></g> </g>
 </text> 
</g>
 </g>
 <g transform="translate(112.42209,-92.886)">
 <g fill="#000">
 <text style="stroke:none" transform="scale(1,-1) translate(1.38889,0)" text-anchor="middle"  font-size="10"> 
<g fill="#000">
 <g stroke="none"> <img 
src="cmsc35139x.png" alt="..
."  class="vdots" ></g> </g>
 </text> 
</g>
 </g>
 <g transform="translate(110.8098,-115.96375)">
 <g fill="#000">
 <text style="stroke:none" transform="scale(1,-1) translate(3.00117,0)" text-anchor="middle"  font-size="10"> 
<g fill="#000">
 <g stroke="none"> <tspan font-family="cmmi" font-size="10">n</tspan></g> </g>
 </text> 
</g>
 </g>
 <g transform="translate(108.3098,-145.48593)">
 <g fill="#000">
 <text style="stroke:none" transform="scale(1,-1) translate(5.50117,0)" text-anchor="middle"  font-size="10"> 
<g fill="#000">
 <g stroke="none"> 0<tspan font-family="cmmi" font-size="10">n</tspan></g> </g>
 </text> 
</g>
 </g>
 <g fill="#fff">
 <g stroke="#000">
 <g fill="#fff">
 <g stroke="#000">
 <path d=" M 3.5354 0.0 C 3.5354 1.95256 1.95256 3.5354 0.0 3.5354 C -1.95256 3.5354 -3.5354 1.95256 -3.5354 0.0 C -3.5354 -1.95256 -1.95256 -3.5354 0.0 -3.5354 C 1.95256 -3.5354 3.5354 -1.95256 3.5354 0.0 Z M 0.0 0.0  " />
 </g>
 </g>
 <g transform="matrix(0.75,0.0,0.0,0.75,0.0,0.0)">
 <g fill="#000">
 <text style="stroke:none" transform="scale(1,-1) translate(0.0,0)" text-anchor="middle"  font-size="10"> 
<g fill="#000">
 <g stroke="none"> </g> </g>
 </text> 
</g>
 </g>
 </g>
 </g>
 <g fill="#fff">
 <g stroke="#000">
 <g fill="#fff">
 <g stroke="#000">
 <path d=" M -24.91734 -28.45274 C -24.91734 -26.50018 -26.50018 -24.91734 -28.45274 -24.91734 C -30.4053 -24.91734 -31.98814 -26.50018 -31.98814 -28.45274 C -31.98814 -30.4053 -30.4053 -31.98814 -28.45274 -31.98814 C -26.50018 -31.98814 -24.91734 -30.4053 -24.91734 -28.45274 Z M -28.45274 -28.45274  " />
 </g>
 </g>
 <g transform="matrix(0.75,0.0,0.0,0.75,-28.45274,-28.45274)">
 <g fill="#000">
 <text style="stroke:none" transform="scale(1,-1) translate(0.0,0)" text-anchor="middle"  font-size="10"> 
<g fill="#000">
 <g stroke="none"> </g> </g>
 </text> 
</g>
 </g>
 </g>
 </g>
 <g fill="#fff">
 <g stroke="#000">
 <g fill="#fff">
 <g stroke="#000">
 <path d=" M 31.98814 -28.45274 C 31.98814 -26.50018 30.4053 -24.91734 28.45274 -24.91734 C 26.50018 -24.91734 24.91734 -26.50018 24.91734 -28.45274 C 24.91734 -30.4053 26.50018 -31.98814 28.45274 -31.98814 C 30.4053 -31.98814 31.98814 -30.4053 31.98814 -28.45274 Z M 28.45274 -28.45274  " />
 </g>
 </g>
 <g transform="matrix(0.75,0.0,0.0,0.75,28.45274,-28.45274)">
 <g fill="#000">
 <text style="stroke:none" transform="scale(1,-1) translate(0.0,0)" text-anchor="middle"  font-size="10"> 
<g fill="#000">
 <g stroke="none"> </g> </g>
 </text> 
</g>
 </g>
 </g>
 </g>
 <g fill="#fff">
 <g stroke="#000">
 <g fill="#fff">
 <g stroke="#000">
 <path d=" M -39.1437 -56.90549 C -39.1437 -54.95293 -40.72655 -53.37009 -42.67911 -53.37009 C -44.63167 -53.37009 -46.21451 -54.95293 -46.21451 -56.90549 C -46.21451 -58.85805 -44.63167 -60.44089 -42.67911 -60.44089 C -40.72655 -60.44089 -39.1437 -58.85805 -39.1437 -56.90549 Z M -42.67911 -56.90549  " />
 </g>
 </g>
 <g transform="matrix(0.75,0.0,0.0,0.75,-42.67911,-56.90549)">
 <g fill="#000">
 <text style="stroke:none" transform="scale(1,-1) translate(0.0,0)" text-anchor="middle"  font-size="10"> 
<g fill="#000">
 <g stroke="none"> </g> </g>
 </text> 
</g>
 </g>
 </g>
 </g>
 <g fill="#fff">
 <g stroke="#000">
 <g fill="#fff">
 <g stroke="#000">
 <path d=" M -10.69096 -56.90549 C -10.69096 -54.95293 -12.2738 -53.37009 -14.22636 -53.37009 C -16.17892 -53.37009 -17.76176 -54.95293 -17.76176 -56.90549 C -17.76176 -58.85805 -16.17892 -60.44089 -14.22636 -60.44089 C -12.2738 -60.44089 -10.69096 -58.85805 -10.69096 -56.90549 Z M -14.22636 -56.90549  " />
 </g>
 </g>
 <g transform="matrix(0.75,0.0,0.0,0.75,-14.22636,-56.90549)">
 <g fill="#000">
 <text style="stroke:none" transform="scale(1,-1) translate(0.0,0)" text-anchor="middle"  font-size="10"> 
<g fill="#000">
 <g stroke="none"> </g> </g>
 </text> 
</g>
 </g>
 </g>
 </g>
 <g fill="#fff">
 <g stroke="#000">
 <g fill="#fff">
 <g stroke="#000">
 <path d=" M 17.76176 -56.90549 C 17.76176 -54.95293 16.17892 -53.37009 14.22636 -53.37009 C 12.2738 -53.37009 10.69096 -54.95293 10.69096 -56.90549 C 10.69096 -58.85805 12.2738 -60.44089 14.22636 -60.44089 C 16.17892 -60.44089 17.76176 -58.85805 17.76176 -56.90549 Z M 14.22636 -56.90549  " />
 </g>
 </g>
 <g transform="matrix(0.75,0.0,0.0,0.75,14.22636,-56.90549)">
 <g fill="#000">
 <text style="stroke:none" transform="scale(1,-1) translate(0.0,0)" text-anchor="middle"  font-size="10"> 
<g fill="#000">
 <g stroke="none"> </g> </g>
 </text> 
</g>
 </g>
 </g>
 </g>
 <g fill="#fff">
 <g stroke="#000">
 <g fill="#fff">
 <g stroke="#000">
 <path d=" M 46.21451 -56.90549 C 46.21451 -54.95293 44.63167 -53.37009 42.67911 -53.37009 C 40.72655 -53.37009 39.1437 -54.95293 39.1437 -56.90549 C 39.1437 -58.85805 40.72655 -60.44089 42.67911 -60.44089 C 44.63167 -60.44089 46.21451 -58.85805 46.21451 -56.90549 Z M 42.67911 -56.90549  " />
 </g>
 </g>
 <g transform="matrix(0.75,0.0,0.0,0.75,42.67911,-56.90549)">
 <g fill="#000">
 <text style="stroke:none" transform="scale(1,-1) translate(0.0,0)" text-anchor="middle"  font-size="10"> 
<g fill="#000">
 <g stroke="none"> </g> </g>
 </text> 
</g>
 </g>
 </g>
 </g>
 <path d=" M -25.84679 -25.84679 L -2.60596 -2.60596  " fill="none"/>
 <path d=" M 25.84679 -25.84679 L 2.60596 -2.60596  " fill="none"/>
 <path d=" M -41.03111 -53.60936 L -30.10109 -31.74876  " fill="none"/>
 <path d=" M -15.87436 -53.6094 L -26.80475 -31.74883  " fill="none"/>
 <path d=" M 15.87436 -53.6094 L 26.80475 -31.74883  " fill="none"/>
 <path d=" M 41.03111 -53.60936 L 30.10109 -31.74876  " fill="none"/>
 <g transform="translate(-1.38889,-92.886)">
 <g fill="#000">
 <text style="stroke:none" transform="scale(1,-1) translate(1.38889,0)" text-anchor="middle"  font-size="10"> 
<g fill="#000">
 <g stroke="none"> <img 
src="cmsc35140x.png" alt="..
."  class="vdots" ></g> </g>
 </text> 
</g>
 </g>
 <g fill="#fff">
 <g stroke="#000">
 <g fill="#fff">
 <g stroke="#000">
 <path d=" M -67.59645 -113.81097 C -67.59645 -111.85841 -69.17929 -110.27557 -71.13185 -110.27557 C -73.08441 -110.27557 -74.66725 -111.85841 -74.66725 -113.81097 C -74.66725 -115.76353 -73.08441 -117.34637 -71.13185 -117.34637 C -69.17929 -117.34637 -67.59645 -115.76353 -67.59645 -113.81097 Z M -71.13185 -113.81097  " />
 </g>
 </g>
 <g transform="matrix(0.75,0.0,0.0,0.75,-71.13185,-113.81097)">
 <g fill="#000">
 <text style="stroke:none" transform="scale(1,-1) translate(0.0,0)" text-anchor="middle"  font-size="10"> 
<g fill="#000">
 <g stroke="none"> </g> </g>
 </text> 
</g>
 </g>
 </g>
 </g>
 <g fill="#fff">
 <g stroke="#000">
 <g fill="#fff">
 <g stroke="#000">
 <path d=" M -39.1437 -113.81097 C -39.1437 -111.85841 -40.72655 -110.27557 -42.67911 -110.27557 C -44.63167 -110.27557 -46.21451 -111.85841 -46.21451 -113.81097 C -46.21451 -115.76353 -44.63167 -117.34637 -42.67911 -117.34637 C -40.72655 -117.34637 -39.1437 -115.76353 -39.1437 -113.81097 Z M -42.67911 -113.81097  " />
 </g>
 </g>
 <g transform="matrix(0.75,0.0,0.0,0.75,-42.67911,-113.81097)">
 <g fill="#000">
 <text style="stroke:none" transform="scale(1,-1) translate(0.0,0)" text-anchor="middle"  font-size="10"> 
<g fill="#000">
 <g stroke="none"> </g> </g>
 </text> 
</g>
 </g>
 </g>
 </g>
 <g fill="#fff">
 <g stroke="#000">
 <g fill="#fff">
 <g stroke="#000">
 <path d=" M -10.69096 -113.81097 C -10.69096 -111.85841 -12.2738 -110.27557 -14.22636 -110.27557 C -16.17892 -110.27557 -17.76176 -111.85841 -17.76176 -113.81097 C -17.76176 -115.76353 -16.17892 -117.34637 -14.22636 -117.34637 C -12.2738 -117.34637 -10.69096 -115.76353 -10.69096 -113.81097 Z M -14.22636 -113.81097  " />
 </g>
 </g>
 <g transform="matrix(0.75,0.0,0.0,0.75,-14.22636,-113.81097)">
 <g fill="#000">
 <text style="stroke:none" transform="scale(1,-1) translate(0.0,0)" text-anchor="middle"  font-size="10"> 
<g fill="#000">
 <g stroke="none"> </g> </g>
 </text> 
</g>
 </g>
 </g>
 </g>
 <g fill="#fff">
 <g stroke="#000">
 <g fill="#fff">
 <g stroke="#000">
 <path d=" M 74.66725 -113.81097 C 74.66725 -111.85841 73.08441 -110.27557 71.13185 -110.27557 C 69.17929 -110.27557 67.59645 -111.85841 67.59645 -113.81097 C 67.59645 -115.76353 69.17929 -117.34637 71.13185 -117.34637 C 73.08441 -117.34637 74.66725 -115.76353 74.66725 -113.81097 Z M 71.13185 -113.81097  " />
 </g>
 </g>
 <g transform="matrix(0.75,0.0,0.0,0.75,71.13185,-113.81097)">
 <g fill="#000">
 <text style="stroke:none" transform="scale(1,-1) translate(0.0,0)" text-anchor="middle"  font-size="10"> 
<g fill="#000">
 <g stroke="none"> </g> </g>
 </text> 
</g>
 </g>
 </g>
 </g>
 <g fill="#fff">
 <g stroke="#000">
 <g fill="#fff">
 <g stroke="#000">
 <path d=" M 46.21451 -113.81097 C 46.21451 -111.85841 44.63167 -110.27557 42.67911 -110.27557 C 40.72655 -110.27557 39.1437 -111.85841 39.1437 -113.81097 C 39.1437 -115.76353 40.72655 -117.34637 42.67911 -117.34637 C 44.63167 -117.34637 46.21451 -115.76353 46.21451 -113.81097 Z M 42.67911 -113.81097  " />
 </g>
 </g>
 <g transform="matrix(0.75,0.0,0.0,0.75,42.67911,-113.81097)">
 <g fill="#000">
 <text style="stroke:none" transform="scale(1,-1) translate(0.0,0)" text-anchor="middle"  font-size="10"> 
<g fill="#000">
 <g stroke="none"> </g> </g>
 </text> 
</g>
 </g>
 </g>
 </g>
 <g fill="#fff">
 <g stroke="#000">
 <g fill="#fff">
 <g stroke="#000">
 <path d=" M 17.76176 -113.81097 C 17.76176 -111.85841 16.17892 -110.27557 14.22636 -110.27557 C 12.2738 -110.27557 10.69096 -111.85841 10.69096 -113.81097 C 10.69096 -115.76353 12.2738 -117.34637 14.22636 -117.34637 C 16.17892 -117.34637 17.76176 -115.76353 17.76176 -113.81097 Z M 14.22636 -113.81097  " />
 </g>
 </g>
 <g transform="matrix(0.75,0.0,0.0,0.75,14.22636,-113.81097)">
 <g fill="#000">
 <text style="stroke:none" transform="scale(1,-1) translate(0.0,0)" text-anchor="middle"  font-size="10"> 
<g fill="#000">
 <g stroke="none"> </g> </g>
 </text> 
</g>
 </g>
 </g>
 </g>
 <g fill="#fff">
 <g stroke="#000">
 <g fill="#fff">
 <g stroke="#000">
 <path d=" M -75.412 -139.43068 L -81.07808 -139.43068 L -81.07808 -145.09676 L -75.412 -145.09676 Z M -81.07808 -145.09676  " />
 </g>
 </g>
 <g transform="matrix(0.85,0.0,0.0,0.85,-78.24504,-142.26372)">
 <g fill="#000">
 <text style="stroke:none" transform="scale(1,-1) translate(0.0,0)" text-anchor="middle"  font-size="10"> 
<g fill="#000">
 <g stroke="none"> </g> </g>
 </text> 
</g>
 </g>
 </g>
 </g>
 <g fill="#fff">
 <g stroke="#000">
 <g fill="#fff">
 <g stroke="#000">
 <path d=" M -61.18562 -139.43068 L -66.8517 -139.43068 L -66.8517 -145.09676 L -61.18562 -145.09676 Z M -66.8517 -145.09676  " />
 </g>
 </g>
 <g transform="matrix(0.85,0.0,0.0,0.85,-64.01866,-142.26372)">
 <g fill="#000">
 <text style="stroke:none" transform="scale(1,-1) translate(0.0,0)" text-anchor="middle"  font-size="10"> 
<g fill="#000">
 <g stroke="none"> </g> </g>
 </text> 
</g>
 </g>
 </g>
 </g>
 <g fill="#fff">
 <g stroke="#000">
 <g fill="#fff">
 <g stroke="#000">
 <path d=" M -46.95926 -139.43068 L -52.62534 -139.43068 L -52.62534 -145.09676 L -46.95926 -145.09676 Z M -52.62534 -145.09676  " />
 </g>
 </g>
 <g transform="matrix(0.85,0.0,0.0,0.85,-49.7923,-142.26372)">
 <g fill="#000">
 <text style="stroke:none" transform="scale(1,-1) translate(0.0,0)" text-anchor="middle"  font-size="10"> 
<g fill="#000">
 <g stroke="none"> </g> </g>
 </text> 
</g>
 </g>
 </g>
 </g>
 <g fill="#fff">
 <g stroke="#000">
 <g fill="#fff">
 <g stroke="#000">
 <path d=" M -32.73288 -139.43068 L -38.39896 -139.43068 L -38.39896 -145.09676 L -32.73288 -145.09676 Z M -38.39896 -145.09676  " />
 </g>
 </g>
 <g transform="matrix(0.85,0.0,0.0,0.85,-35.56592,-142.26372)">
 <g fill="#000">
 <text style="stroke:none" transform="scale(1,-1) translate(0.0,0)" text-anchor="middle"  font-size="10"> 
<g fill="#000">
 <g stroke="none"> </g> </g>
 </text> 
</g>
 </g>
 </g>
 </g>
 <g fill="#fff">
 <g stroke="#000">
 <g fill="#fff">
 <g stroke="#000">
 <path d=" M -18.50652 -139.43068 L -24.17259 -139.43068 L -24.17259 -145.09676 L -18.50652 -145.09676 Z M -24.17259 -145.09676  " />
 </g>
 </g>
 <g transform="matrix(0.85,0.0,0.0,0.85,-21.33955,-142.26372)">
 <g fill="#000">
 <text style="stroke:none" transform="scale(1,-1) translate(0.0,0)" text-anchor="middle"  font-size="10"> 
<g fill="#000">
 <g stroke="none"> </g> </g>
 </text> 
</g>
 </g>
 </g>
 </g>
 <g fill="#fff">
 <g stroke="#000">
 <g fill="#fff">
 <g stroke="#000">
 <path d=" M -4.28014 -139.43068 L -9.94621 -139.43068 L -9.94621 -145.09676 L -4.28014 -145.09676 Z M -9.94621 -145.09676  " />
 </g>
 </g>
 <g transform="matrix(0.85,0.0,0.0,0.85,-7.11317,-142.26372)">
 <g fill="#000">
 <text style="stroke:none" transform="scale(1,-1) translate(0.0,0)" text-anchor="middle"  font-size="10"> 
<g fill="#000">
 <g stroke="none"> </g> </g>
 </text> 
</g>
 </g>
 </g>
 </g>
 <g fill="#fff">
 <g stroke="#000">
 <g fill="#fff">
 <g stroke="#000">
 <path d=" M 81.07808 -139.43068 L 75.412 -139.43068 L 75.412 -145.09676 L 81.07808 -145.09676 Z M 75.412 -145.09676  " />
 </g>
 </g>
 <g transform="matrix(0.85,0.0,0.0,0.85,78.24504,-142.26372)">
 <g fill="#000">
 <text style="stroke:none" transform="scale(1,-1) translate(0.0,0)" text-anchor="middle"  font-size="10"> 
<g fill="#000">
 <g stroke="none"> </g> </g>
 </text> 
</g>
 </g>
 </g>
 </g>
 <g fill="#fff">
 <g stroke="#000">
 <g fill="#fff">
 <g stroke="#000">
 <path d=" M 66.8517 -139.43068 L 61.18562 -139.43068 L 61.18562 -145.09676 L 66.8517 -145.09676 Z M 61.18562 -145.09676  " />
 </g>
 </g>
 <g transform="matrix(0.85,0.0,0.0,0.85,64.01866,-142.26372)">
 <g fill="#000">
 <text style="stroke:none" transform="scale(1,-1) translate(0.0,0)" text-anchor="middle"  font-size="10"> 
<g fill="#000">
 <g stroke="none"> </g> </g>
 </text> 
</g>
 </g>
 </g>
 </g>
 <g fill="#fff">
 <g stroke="#000">
 <g fill="#fff">
 <g stroke="#000">
 <path d=" M 52.62534 -139.43068 L 46.95926 -139.43068 L 46.95926 -145.09676 L 52.62534 -145.09676 Z M 46.95926 -145.09676  " />
 </g>
 </g>
 <g transform="matrix(0.85,0.0,0.0,0.85,49.7923,-142.26372)">
 <g fill="#000">
 <text style="stroke:none" transform="scale(1,-1) translate(0.0,0)" text-anchor="middle"  font-size="10"> 
<g fill="#000">
 <g stroke="none"> </g> </g>
 </text> 
</g>
 </g>
 </g>
 </g>
 <g fill="#fff">
 <g stroke="#000">
 <g fill="#fff">
 <g stroke="#000">
 <path d=" M 38.39896 -139.43068 L 32.73288 -139.43068 L 32.73288 -145.09676 L 38.39896 -145.09676 Z M 32.73288 -145.09676  " />
 </g>
 </g>
 <g transform="matrix(0.85,0.0,0.0,0.85,35.56592,-142.26372)">
 <g fill="#000">
 <text style="stroke:none" transform="scale(1,-1) translate(0.0,0)" text-anchor="middle"  font-size="10"> 
<g fill="#000">
 <g stroke="none"> </g> </g>
 </text> 
</g>
 </g>
 </g>
 </g>
 <g fill="#fff">
 <g stroke="#000">
 <g fill="#fff">
 <g stroke="#000">
 <path d=" M 24.17259 -139.43068 L 18.50652 -139.43068 L 18.50652 -145.09676 L 24.17259 -145.09676 Z M 18.50652 -145.09676  " />
 </g>
 </g>
 <g transform="matrix(0.85,0.0,0.0,0.85,21.33955,-142.26372)">
 <g fill="#000">
 <text style="stroke:none" transform="scale(1,-1) translate(0.0,0)" text-anchor="middle"  font-size="10"> 
<g fill="#000">
 <g stroke="none"> </g> </g>
 </text> 
</g>
 </g>
 </g>
 </g>
 <g fill="#fff">
 <g stroke="#000">
 <g fill="#fff">
 <g stroke="#000">
 <path d=" M 9.94621 -139.43068 L 4.28014 -139.43068 L 4.28014 -145.09676 L 9.94621 -145.09676 Z M 4.28014 -145.09676  " />
 </g>
 </g>
 <g transform="matrix(0.85,0.0,0.0,0.85,7.11317,-142.26372)">
 <g fill="#000">
 <text style="stroke:none" transform="scale(1,-1) translate(0.0,0)" text-anchor="middle"  font-size="10"> 
<g fill="#000">
 <g stroke="none"> </g> </g>
 </text> 
</g>
 </g>
 </g>
 </g>
 <path d=" M -77.49438 -139.26068 L -72.02559 -117.3863  " fill="none"/>
 <path d=" M -64.76932 -139.26068 L -70.23811 -117.3863  " fill="none"/>
 <path d=" M -49.04164 -139.26068 L -43.57285 -117.3863  " fill="none"/>
 <path d=" M -36.31657 -139.26068 L -41.78537 -117.3863  " fill="none"/>
 <path d=" M -20.5889 -139.26068 L -15.1201 -117.3863  " fill="none"/>
 <path d=" M -7.86383 -139.26068 L -13.33263 -117.3863  " fill="none"/>
 <path d=" M 77.49438 -139.26068 L 72.02559 -117.3863  " fill="none"/>
 <path d=" M 64.76932 -139.26068 L 70.23811 -117.3863  " fill="none"/>
 <path d=" M 49.04164 -139.26068 L 43.57285 -117.3863  " fill="none"/>
 <path d=" M 36.31657 -139.26068 L 41.78537 -117.3863  " fill="none"/>
 <path d=" M 20.5889 -139.26068 L 15.1201 -117.3863  " fill="none"/>
 <path d=" M 7.86383 -139.26068 L 13.33263 -117.3863  " fill="none"/>
 </g>
 </g>
 
                                                                                       </g> 
</svg> 
