<?xml version="1.0" encoding="iso-8859-1" standalone="no"?> 
<?xml-stylesheet href="cmsc351.css" type="text/css"?> 
<svg xmlns="http://www.w3.org/2000/svg" xmlns:xlink="http://www.w3.org/1999/xlink" width="144.17139pt" height="70.76677pt" viewBox="-15.1802 -63.31386 144.17139 70.76677 "> 
<g transform="translate(0, 7.45291 ) scale(1,-1) translate(0,63.31386 )"> 
     <g stroke="#000" fill="#000">
 <g stroke-width="0.4">
 <g fill="#fff">
 <g stroke="#000">
 <g fill="#fff">
 <g stroke="#000">
 <path d=" M 4.95805 5.57196 L -4.95805 5.57196 L -4.95805 -5.57193 L 4.95805 -5.57193 Z M -4.95805 -5.57193  " />
 </g>
 </g>
 <g transform="matrix(0.85,0.0,0.0,0.85,-2.12502,-2.73889)">
 <g fill="#000">
 <text style="stroke:none" transform="scale(1,-1) translate(2.5,0)" text-anchor="middle"  font-size="10"> 
<g fill="#000">
 <g stroke="none"> 1</g> </g>
 </text> 
</g>
 </g>
 </g>
 </g>
 <g fill="#fff">
 <g stroke="#000">
 <g fill="#fff">
 <g stroke="#000">
 <path d=" M 17.0594 2.83304 L 11.39333 2.83304 L 11.39333 -2.83304 L 17.0594 -2.83304 Z M 11.39333 -2.83304  " />
 </g>
 </g>
 <g transform="matrix(0.85,0.0,0.0,0.85,14.22636,0.0)">
 <g fill="#000">
 <text style="stroke:none" transform="scale(1,-1) translate(0.0,0)" text-anchor="middle"  font-size="10"> 
<g fill="#000">
 <g stroke="none"> </g> </g>
 </text> 
</g>
 </g>
 </g>
 </g>
 <g fill="#fff">
 <g stroke="#000">
 <g fill="#fff">
 <g stroke="#000">
 <path d=" M 31.28578 2.83304 L 25.6197 2.83304 L 25.6197 -2.83304 L 31.28578 -2.83304 Z M 25.6197 -2.83304  " />
 </g>
 </g>
 <g transform="matrix(0.85,0.0,0.0,0.85,28.45274,0.0)">
 <g fill="#000">
 <text style="stroke:none" transform="scale(1,-1) translate(0.0,0)" text-anchor="middle"  font-size="10"> 
<g fill="#000">
 <g stroke="none"> </g> </g>
 </text> 
</g>
 </g>
 </g>
 </g>
 <g fill="#fff">
 <g stroke="#000">
 <g fill="#fff">
 <g stroke="#000">
 <path d=" M 45.51215 2.83304 L 39.84607 2.83304 L 39.84607 -2.83304 L 45.51215 -2.83304 Z M 39.84607 -2.83304  " />
 </g>
 </g>
 <g transform="matrix(0.85,0.0,0.0,0.85,42.67911,0.0)">
 <g fill="#000">
 <text style="stroke:none" transform="scale(1,-1) translate(0.0,0)" text-anchor="middle"  font-size="10"> 
<g fill="#000">
 <g stroke="none"> </g> </g>
 </text> 
</g>
 </g>
 </g>
 </g>
 <g fill="#fff">
 <g stroke="#000">
 <g fill="#fff">
 <g stroke="#000">
 <path d=" M 62.85947 7.25291 L 50.95152 7.25291 L 50.95152 -7.2529 L 62.85947 -7.2529 Z M 50.95152 -7.2529  " />
 </g>
 </g>
 <g transform="matrix(0.85,0.0,0.0,0.85,53.78456,-1.4887)">
 <g fill="#000">
 <text style="stroke:none" transform="scale(1,-1) translate(3.67166,0)" text-anchor="middle"  font-size="10"> 
<g fill="#000">
 <g stroke="none"> <img 
src="cmsc351105x.png" alt="n2"  class="frac" align="middle"></g> </g>
 </text> 
</g>
 </g>
 </g>
 </g>
 <g fill="#fff">
 <g stroke="#000">
 <g fill="#fff">
 <g stroke="#000">
 <path d=" M 73.96489 2.83304 L 68.29881 2.83304 L 68.29881 -2.83304 L 73.96489 -2.83304 Z M 68.29881 -2.83304  " />
 </g>
 </g>
 <g transform="matrix(0.85,0.0,0.0,0.85,71.13185,0.0)">
 <g fill="#000">
 <text style="stroke:none" transform="scale(1,-1) translate(0.0,0)" text-anchor="middle"  font-size="10"> 
<g fill="#000">
 <g stroke="none"> </g> </g>
 </text> 
</g>
 </g>
 </g>
 </g>
 <g fill="#fff">
 <g stroke="#000">
 <g fill="#fff">
 <g stroke="#000">
 <path d=" M 88.19127 2.83304 L 82.52519 2.83304 L 82.52519 -2.83304 L 88.19127 -2.83304 Z M 82.52519 -2.83304  " />
 </g>
 </g>
 <g transform="matrix(0.85,0.0,0.0,0.85,85.35823,0.0)">
 <g fill="#000">
 <text style="stroke:none" transform="scale(1,-1) translate(0.0,0)" text-anchor="middle"  font-size="10"> 
<g fill="#000">
 <g stroke="none"> </g> </g>
 </text> 
</g>
 </g>
 </g>
 </g>
 <g fill="#fff">
 <g stroke="#000">
 <g fill="#fff">
 <g stroke="#000">
 <path d=" M 102.41763 2.83304 L 96.75156 2.83304 L 96.75156 -2.83304 L 102.41763 -2.83304 Z M 96.75156 -2.83304  " />
 </g>
 </g>
 <g transform="matrix(0.85,0.0,0.0,0.85,99.5846,0.0)">
 <g fill="#000">
 <text style="stroke:none" transform="scale(1,-1) translate(0.0,0)" text-anchor="middle"  font-size="10"> 
<g fill="#000">
 <g stroke="none"> </g> </g>
 </text> 
</g>
 </g>
 </g>
 </g>
 <g fill="#fff">
 <g stroke="#000">
 <g fill="#fff">
 <g stroke="#000">
 <path d=" M 119.19504 4.66292 L 108.42693 4.66292 L 108.42693 -4.6629 L 119.19504 -4.6629 Z M 108.42693 -4.6629  " />
 </g>
 </g>
 <g transform="matrix(0.85,0.0,0.0,0.85,111.25996,-1.82986)">
 <g fill="#000">
 <text style="stroke:none" transform="scale(1,-1) translate(3.00117,0)" text-anchor="middle"  font-size="10"> 
<g fill="#000">
 <g stroke="none"> <tspan font-family="cmmi" font-size="10">n</tspan> </g> </g>
 </text> 
</g>
 </g>
 </g>
 </g>
 <g transform="translate(-11.84723,-59.98088)">
 <g fill="#000">
 <text style="stroke:none" transform="scale(1,-1) translate(11.84723,0)" text-anchor="middle"  font-size="10"> 
<g fill="#000">
 <g stroke="none"> worst</g> </g>
 </text> 
</g>
 </g>
 <g transform="translate(47.84991,-31.92496)">
 <g fill="#000">
 <text style="stroke:none" transform="scale(1,-1) translate(9.05557,0)" text-anchor="middle"  font-size="10"> 
<g fill="#000">
 <g stroke="none"> best </g> </g>
 </text> 
</g>
 </g>
 <g transform="translate(14.56381,-45.17911)">
 <g fill="#000">
 <text style="stroke:none" transform="scale(1,-1) translate(13.88893,0)" text-anchor="middle"  font-size="10"> 
<g fill="#000">
 <g stroke="none"> &#8221;avg.&#8221;</g> </g>
 </text> 
</g>
 </g>
 <g transform="translate(101.96375,-59.98088)">
 <g fill="#000">
 <text style="stroke:none" transform="scale(1,-1) translate(11.84723,0)" text-anchor="middle"  font-size="10"> 
<g fill="#000">
 <g stroke="none"> worst </g> </g>
 </text> 
</g>
 </g>
 <g transform="translate(82.94678,-43.85966)">
 <g fill="#000">
 <text style="stroke:none" transform="scale(1,-1) translate(2.41145,0)" text-anchor="middle"  font-size="10"> 
<g fill="#000">
 <g stroke="none"> <tspan font-family="cmmi" font-size="10">q</tspan> </g> </g>
 </text> 
</g>
 </g>
 <path d=" M 0.0 -50.29712 L 0.0 -5.74193  " fill="none"/>
 <path d=" M 113.81097 -50.29712 L 113.81097 -4.8329  " fill="none"/>
 <path d=" M 56.90549 -21.44756 L 56.90549 -7.4229  " fill="none"/>
 <path d=" M 28.45274 -34.70169 L 28.45274 -3.00304  " fill="none"/>
 <path d=" M 85.35823 -36.02115 L 85.35823 -3.00304  " fill="none"/>
 </g>
 </g>
 
                                     </g> 
</svg> 
